<?xml version="1.0" encoding="iso-8859-1"?>
<!-- Generator: Adobe Illustrator 19.0.0, SVG Export Plug-In . SVG Version: 6.00 Build 0)  -->
<svg version="1.1" id="Capa_1" xmlns="http://www.w3.org/2000/svg" xmlns:xlink="http://www.w3.org/1999/xlink" x="0px" y="0px"
	 viewBox="0 0 490.16 490.16" style="enable-background:new 0 0 490.16 490.16;" xml:space="preserve">
<g>
	<g>
		<path d="M435.921,367.401c-0.027-0.001-0.054-0.001-0.081-0.001c-2.209,0-4,1.791-4,4c0.022,29.625-23.975,53.658-53.6,53.68h-8
			c-2.209,0-4,1.791-4,4c0,2.209,1.791,4,4,4h8c34.002-0.044,61.556-27.598,61.6-61.6
			C439.884,369.271,438.129,367.445,435.921,367.401z"/>
	</g>
</g>
<g>
	<g>
		<path d="M352.16,425.08h-9.68c-2.209,0-4,1.791-4,4c0,2.209,1.791,4,4,4h9.68c2.209,0,4-1.791,4-4
			C356.16,426.871,354.369,425.08,352.16,425.08z"/>
	</g>
</g>
<g>
	<g>
		<path d="M471.28,314.08H353.52l0.4-0.68l7.16-7.4c1.091-1.16,1.389-2.857,0.76-4.32c-0.638-1.462-2.084-2.406-3.68-2.4h-88.68
			c-9.488,0.036-17.969,5.923-21.32,14.8H22.88v-248C22.902,33.981,48.941,7.978,81.04,8c0.013,0,0.027,0,0.04,0h32.48
			c30.606,0.108,55.883,23.934,57.8,54.48h-12c-0.921,0.007-1.811,0.332-2.52,0.92l-48.92,40.48c-1.296,1.079-1.776,2.855-1.2,4.44
			c0.559,1.6,2.065,2.673,3.76,2.68h129.48c1.694-0.007,3.201-1.08,3.76-2.68c0.576-1.585,0.096-3.361-1.2-4.44l-49-40.48
			c-0.72-0.596-1.625-0.922-2.56-0.92h-11.6C177.43,27.469,148.504,0.053,113.44,0H81.08c-36.524-0.022-66.156,29.556-66.2,66.08
			v298.2c0.059,47.697,35.018,88.168,82.2,95.16l-9.96,25.24c-0.479,1.236-0.314,2.63,0.44,3.72c0.737,1.091,1.964,1.749,3.28,1.76
			h22.24c1.639,0.002,3.113-0.997,3.72-2.52l10.72-27.2H362.8l10.72,27.2c0.607,1.523,2.081,2.522,3.72,2.52h21.96
			c1.316-0.011,2.543-0.669,3.28-1.76c0.754-1.09,0.919-2.484,0.44-3.72l-9.84-25.24c47.182-6.992,82.141-47.463,82.2-95.16v-46.2
			C475.28,315.871,473.489,314.08,471.28,314.08z M189.68,70.48L229,103H121.6l39.48-32.52H189.68z M254.72,322.08
			c0-8.152,6.608-14.76,14.76-14.76c0,0,0,0,0,0h79.24l-0.8,0.8l-0.32,0.36c-2.915,3.935-4.486,8.703-4.48,13.6v81h-16.4v-13.6
			c0-2.209-1.791-4-4-4c-2.209,0-4,1.791-4,4v13.6h-17.44v-13.6c0-2.209-1.791-4-4-4c-2.209,0-4,1.791-4,4v13.6h-17.44v-13.6
			c0-2.209-1.791-4-4-4c-2.209,0-4,1.791-4,4v13.6h-13.12V322.08z M22.88,322.08h224l-0.16,12.08
			c-0.521-0.209-1.078-0.318-1.64-0.32H22.88V322.08z M110.2,482.16H96.84l8.64-21.92c1.84,0,3.68,0,5.52,0h7.76L110.2,482.16z
			 M393.32,482.16h-13.36l-8.56-21.72h7.76c1.84,0,3.68,0,5.52,0L393.32,482.16z M467.12,364.28
			c-0.044,48.593-39.367,88.006-87.96,88.16h-268c-48.546-0.132-87.868-39.454-88-88v-22.6h221.92
			c0.565-0.016,1.121-0.138,1.64-0.36v65.6c0,2.209,1.791,4,4,4h96.4c2.209,0,4-1.791,4-4v-65.24h116V364.28z M467.28,333.84h-116
			v-12c0.285,0.108,0.58,0.188,0.88,0.24h115.12V333.84z"/>
	</g>
</g>
<g>
	<g>
		<path d="M238.92,123.64h-127.4c-2.209,0-4,1.791-4,4c0,2.209,1.791,4,4,4h127.4c2.209,0,4-1.791,4-4
			C242.92,125.431,241.129,123.64,238.92,123.64z"/>
	</g>
</g>
<g>
	<g>
		<path d="M118.84,152.08c-2.209,0-4,1.791-4,4v12.4c0,2.209,1.791,4,4,4c2.209,0,4-1.791,4-4v-12.4
			C122.84,153.871,121.049,152.08,118.84,152.08z"/>
	</g>
</g>
<g>
	<g>
		<path d="M118.84,238.28c-2.209,0-4,1.791-4,4v16.36c0,2.209,1.791,4,4,4c2.209,0,4-1.791,4-4v-16.36
			C122.84,240.071,121.049,238.28,118.84,238.28z"/>
	</g>
</g>
<g>
	<g>
		<path d="M118.84,197.36c-2.209,0-4,1.791-4,4v4.72c0,2.209,1.791,4,4,4c2.209,0,4-1.791,4-4v-4.72
			C122.84,199.151,121.049,197.36,118.84,197.36z"/>
	</g>
</g>
<g>
	<g>
		<path d="M118.84,276.12c-2.209,0-4,1.791-4,4v4.96c0,2.209,1.791,4,4,4c2.209,0,4-1.791,4-4v-4.96
			C122.84,277.911,121.049,276.12,118.84,276.12z"/>
	</g>
</g>
<g>
	<g>
		<path d="M147.04,189.68c-2.209,0-4,1.791-4,4v21.64c0,2.209,1.791,4,4,4c2.209,0,4-1.791,4-4v-21.64
			C151.04,191.471,149.249,189.68,147.04,189.68z"/>
	</g>
</g>
<g>
	<g>
		<path d="M147.04,152.08c-2.209,0-4,1.791-4,4v4.72c0,2.209,1.791,4,4,4c2.209,0,4-1.791,4-4v-4.72
			C151.04,153.871,149.249,152.08,147.04,152.08z"/>
	</g>
</g>
<g>
	<g>
		<path d="M147.04,231.68c-2.209,0-4,1.791-4,4v4.76c0,2.209,1.791,4,4,4c2.209,0,4-1.791,4-4v-4.76
			C151.04,233.471,149.249,231.68,147.04,231.68z"/>
	</g>
</g>
<g>
	<g>
		<path d="M147.04,278.2c-2.209,0-4,1.791-4,4v4.76c0,2.209,1.791,4,4,4c2.209,0,4-1.791,4-4v-4.76
			C151.04,279.991,149.249,278.2,147.04,278.2z"/>
	</g>
</g>
<g>
	<g>
		<path d="M203.4,152.08c-2.209,0-4,1.791-4,4v6.32c0,2.209,1.791,4,4,4c2.209,0,4-1.791,4-4v-6.32
			C207.4,153.871,205.609,152.08,203.4,152.08z"/>
	</g>
</g>
<g>
	<g>
		<path d="M203.4,287.28c-2.209,0-4,1.791-4,4v6.32c0,2.209,1.791,4,4,4c2.209,0,4-1.791,4-4v-6.32
			C207.4,289.071,205.609,287.28,203.4,287.28z"/>
	</g>
</g>
<g>
	<g>
		<path d="M203.4,228.36c-2.209,0-4,1.791-4,4v10.4c0,2.209,1.791,4,4,4c2.209,0,4-1.791,4-4v-10.4
			C207.4,230.151,205.609,228.36,203.4,228.36z"/>
	</g>
</g>
<g>
	<g>
		<path d="M203.4,187.44c-2.209,0-4,1.791-4,4v15.2c0,2.209,1.791,4,4,4c2.209,0,4-1.791,4-4v-15.2
			C207.4,189.231,205.609,187.44,203.4,187.44z"/>
	</g>
</g>
<g>
	<g>
		<path d="M231.6,152.08c-2.209,0-4,1.791-4,4v10.68c0,2.209,1.791,4,4,4c2.209,0,4-1.791,4-4v-10.68
			C235.6,153.871,233.809,152.08,231.6,152.08z"/>
	</g>
</g>
<g>
	<g>
		<path d="M231.6,201.92c-2.209,0-4,1.791-4,4v4.72c0,2.209,1.791,4,4,4c2.209,0,4-1.791,4-4v-4.72
			C235.6,203.711,233.809,201.92,231.6,201.92z"/>
	</g>
</g>
<g>
	<g>
		<path d="M231.6,277.08c-2.209,0-4,1.791-4,4v4.72c0,2.209,1.791,4,4,4c2.209,0,4-1.791,4-4v-4.72
			C235.6,278.871,233.809,277.08,231.6,277.08z"/>
	</g>
</g>
<g>
	<g>
		<path d="M231.6,234.36c-2.209,0-4,1.791-4,4v14.24c0,2.209,1.791,4,4,4c2.209,0,4-1.791,4-4v-14.24
			C235.6,236.151,233.809,234.36,231.6,234.36z"/>
	</g>
</g>
<g>
	<g>
		<path d="M175.24,247.88c-2.209,0-4,1.791-4,4v10.64c0,2.209,1.791,4,4,4c2.209,0,4-1.791,4-4v-10.64
			C179.24,249.671,177.449,247.88,175.24,247.88z"/>
	</g>
</g>
<g>
	<g>
		<path d="M175.24,198.44c-2.209,0-4,1.791-4,4v4.72c0,2.209,1.791,4,4,4c2.209,0,4-1.791,4-4v-4.72
			C179.24,200.231,177.449,198.44,175.24,198.44z"/>
	</g>
</g>
<g>
	<g>
		<path d="M175.24,152.08c-2.209,0-4,1.791-4,4v14.24c0,2.209,1.791,4,4,4c2.209,0,4-1.791,4-4v-14.24
			C179.24,153.871,177.449,152.08,175.24,152.08z"/>
	</g>
</g>
<g>
</g>
<g>
</g>
<g>
</g>
<g>
</g>
<g>
</g>
<g>
</g>
<g>
</g>
<g>
</g>
<g>
</g>
<g>
</g>
<g>
</g>
<g>
</g>
<g>
</g>
<g>
</g>
<g>
</g>
</svg>
